#tb 0: 1/25
0,          0,          0,        1,   149760, 0xdb5e3b56
0,          1,          1,        1,   149760, 0x496f2a41
0,          2,          2,        1,   149760, 0x0690ee0a
0,          3,          3,        1,   149760, 0x5648fb4e
0,          4,          4,        1,   149760, 0xd58bbe51
0,          5,          5,        1,   149760, 0x647c4520
0,          6,          6,        1,   149760, 0x0e361335
0,          7,          7,        1,   149760, 0xd1a4289b
0,          8,          8,        1,   149760, 0x04d29f74
0,          9,          9,        1,   149760, 0x3bbffc55
0,         10,         10,        1,   149760, 0xefe30f2b
0,         11,         11,        1,   149760, 0x3a336f52
0,         12,         12,        1,   149760, 0x0dffed51
0,         13,         13,        1,   149760, 0x5a9db757
0,         14,         14,        1,   149760, 0x5e7313c5
0,         15,         15,        1,   149760, 0xbffb3a0e
0,         16,         16,        1,   149760, 0x073966e9
